<svg xmlns="http://www.w3.org/2000/svg" version="1.1" viewBox="6 6 88 88" preserveAspectRatio="xMidYMid meet" role="img" aria-labelledby="title desc">
  <title id="title">Kernel Builder</title>
  <desc id="desc">Violet processor chip with an atom-shaped kernel mark</desc>
  <defs>
    <linearGradient id="chip-violet" x1="24" y1="24" x2="76" y2="78" gradientUnits="userSpaceOnUse">
      <stop offset="0" stop-color="#d8b4fe"/>
      <stop offset="0.5" stop-color="#9b6be8"/>
      <stop offset="1" stop-color="#6d3bb8"/>
    </linearGradient>
  </defs>
  <g fill="url(#chip-violet)">
    <rect x="24.2" y="10.4" width="4.6" height="13.2" rx="1.5"/><rect x="35.9" y="10.4" width="4.6" height="13.2" rx="1.5"/><rect x="47.7" y="10.4" width="4.6" height="13.2" rx="1.5"/><rect x="59.5" y="10.4" width="4.6" height="13.2" rx="1.5"/><rect x="71.2" y="10.4" width="4.6" height="13.2" rx="1.5"/>
    <rect x="24.2" y="76.4" width="4.6" height="13.2" rx="1.5"/><rect x="35.9" y="76.4" width="4.6" height="13.2" rx="1.5"/><rect x="47.7" y="76.4" width="4.6" height="13.2" rx="1.5"/><rect x="59.5" y="76.4" width="4.6" height="13.2" rx="1.5"/><rect x="71.2" y="76.4" width="4.6" height="13.2" rx="1.5"/>
    <rect x="10.4" y="24.2" width="13.2" height="4.6" rx="1.5"/><rect x="10.4" y="35.9" width="13.2" height="4.6" rx="1.5"/><rect x="10.4" y="47.7" width="13.2" height="4.6" rx="1.5"/><rect x="10.4" y="59.5" width="13.2" height="4.6" rx="1.5"/><rect x="10.4" y="71.2" width="13.2" height="4.6" rx="1.5"/>
    <rect x="76.4" y="24.2" width="13.2" height="4.6" rx="1.5"/><rect x="76.4" y="35.9" width="13.2" height="4.6" rx="1.5"/><rect x="76.4" y="47.7" width="13.2" height="4.6" rx="1.5"/><rect x="76.4" y="59.5" width="13.2" height="4.6" rx="1.5"/><rect x="76.4" y="71.2" width="13.2" height="4.6" rx="1.5"/>
  </g>
  <rect x="20.5" y="20.5" width="59" height="59" rx="10.5" fill="url(#chip-violet)"/>
  <rect x="25.4" y="25.4" width="49.2" height="49.2" rx="7.2" fill="#ffffff" opacity="0.18"/>
  <rect x="27.1" y="27.1" width="45.8" height="45.8" rx="6.3" fill="none" stroke="#808080" stroke-width="1.85"/>
  <g fill="none" stroke="#808080" stroke-width="4.5">
    <ellipse cx="50" cy="50" rx="21.5" ry="8.4" transform="rotate(45 50 50)"/>
    <ellipse cx="50" cy="50" rx="21.5" ry="8.4" transform="rotate(-45 50 50)"/>
  </g>
  <circle cx="50" cy="50" r="4.6" fill="#808080"/>
</svg>
